<?xml version="1.0" encoding="UTF-8"?>
<!-- Creator: CorelDRAW 2019 (64-Bit) -->
<svg xmlns="http://www.w3.org/2000/svg" xml:space="preserve" width="425px" height="425px" version="1.1" style="shape-rendering:geometricPrecision; text-rendering:geometricPrecision; image-rendering:optimizeQuality; fill-rule:evenodd; clip-rule:evenodd"
viewBox="-10 -10 445 445"
 xmlns:xlink="http://www.w3.org/1999/xlink">
 <defs>
  <style type="text/css">
   <![CDATA[
    .str0 {stroke:#533085;stroke-width:6.25;stroke-miterlimit:22.9256}
    .str1 {stroke:#533085;stroke-width:4.16;stroke-miterlimit:22.9256}
    .fil0 {fill:none}
    .fil1 {fill:#5B3789}
    .fil2 {fill:#5B3789;fill-rule:nonzero}
   ]]>
  </style>
 </defs>
 <g id="Layer_x0020_1">
  <metadata id="CorelCorpID_0Corel-Layer"/>
  <g id="_2301963913536">
   <path class="fil0 str0" d="M267.89 368.26c85.89,-31.07 130.55,-125.82 99.74,-211.62 -30.82,-85.8 -125.42,-130.17 -211.32,-99.1 -85.9,31.08 -130.55,125.82 -99.74,211.62 30.81,85.81 125.42,130.17 211.32,99.1z"/>
   <path class="fil0 str1" d="M283.83 412.65c110.44,-39.95 167.85,-161.77 128.23,-272.09 -39.61,-110.31 -161.25,-167.36 -271.69,-127.41 -110.44,39.96 -167.85,161.77 -128.24,272.09 39.62,110.32 161.26,167.36 271.7,127.41z"/>
   <g>
    <path class="fil1" d="M140.56 238.52c41.71,-19.91 75.43,43.95 27.35,69.21 -22.45,11.79 -39.69,2.94 -47.89,-20.15 -7.85,-22.1 -0.55,-38.99 20.54,-49.06zm139.46 -47.05c7.8,-3.83 20.99,-5.22 29.23,-2.03 23.33,9.04 30.22,51.43 -2.53,69.45 -21.25,11.69 -39.48,2.72 -46.84,-19.73 -6.32,-19.31 2,-38.77 20.14,-47.69zm-79.98 107.2c10.02,-12.75 21.86,-49.84 23.73,-65.29 2.37,-19.6 -3.5,-33.99 -21,-43.7 -10.48,-5.82 -33.16,-12.53 -45.08,-12.16 -4.5,-26.4 31.6,-33.88 51.22,-31.75 15.72,1.7 9.27,3.45 16.43,26.88 6.64,21.7 18.63,17.83 23.87,19.03 -2.07,9.84 -17.45,30.02 -2.24,58.09 17.93,33.08 39.81,23.26 48.57,24.56l16.39 -5.91c3.75,-3.15 8.17,-5.09 12.46,-8.96 11.28,-10.2 16.65,-21.31 18.46,-36.34 2.75,-22.77 -6.72,-40.29 -28.11,-48.41 -22.26,-8.47 -60.29,-1.23 -73.16,-3.9 -6.82,-1.41 -7.38,-3.9 -5.92,-10.15 1.66,-7.13 6.69,-21.04 4.23,-27.65 -11.55,-2.72 -17.15,-5 -29.68,-4.48 -32.16,1.34 -66.37,22.48 -69.63,56.12 -1.28,13.29 0.61,19.55 14.09,23.95 9.34,3.05 19.05,4.18 28.7,5.82 11.62,1.98 21.65,2.04 23.09,15.2 0.75,6.83 -0.01,24.23 -4.75,29.31 -3.69,-12.2 -6.41,-20.89 -16.8,-29.27 -24.49,-19.76 -66.8,-7.97 -82.61,18.71 -15.02,25.34 -4.51,66.19 32.65,73.16 23.81,4.47 49.92,-3.57 65.09,-22.86z"/>
    <path class="fil1" d="M193.06 121.75c6.8,-4.29 5.73,-6.78 15.96,-5.27 11.79,1.74 20.66,6.72 33.24,3.22 4.46,-1.23 5.52,-1.35 5.46,-5.99 -0.04,-3.41 -0.58,-6.7 -2.39,-9.65 -12.94,-21.17 -70,4.52 -52.27,17.69z"/>
   </g>
   <g>
    <path class="fil2" d="M406.27 254.63l-7.08 -1.6 -0.67 2.95c-0.38,1.69 -0.36,3.07 0.05,4.13 0.42,1.05 1.38,1.75 2.89,2.1 0.91,0.2 1.71,0.23 2.43,0.08 0.71,-0.15 1.29,-0.43 1.72,-0.86 0.43,-0.42 0.77,-0.88 1.03,-1.37 0.25,-0.48 0.44,-1.02 0.57,-1.61 0.23,-1.01 0.34,-1.77 0.33,-2.3 -0.01,-0.52 -0.11,-0.88 -0.3,-1.08 -0.2,-0.19 -0.52,-0.34 -0.97,-0.44zm-8.7 -1.97l-9.08 -2.06c-0.63,-0.14 -1.14,0.04 -1.56,0.55 -0.42,0.51 -0.78,1.41 -1.07,2.71 -0.24,1.06 -0.37,1.99 -0.38,2.81 -0.01,0.81 0.07,1.48 0.23,1.99 0.17,0.51 0.44,0.96 0.8,1.32 0.35,0.37 0.73,0.64 1.15,0.83 0.41,0.18 0.9,0.33 1.48,0.46 1.8,0.41 3.39,0.2 4.8,-0.65 1.4,-0.84 2.35,-2.33 2.83,-4.44l0.8 -3.52zm12.38 1.1c-0.16,0.67 -0.35,1.54 -0.59,2.6 -0.25,1.07 -0.41,1.8 -0.5,2.19 -0.31,1.35 -0.7,2.51 -1.18,3.48 -0.48,0.96 -0.98,1.7 -1.5,2.21 -0.51,0.51 -1.08,0.89 -1.7,1.13 -0.62,0.25 -1.19,0.38 -1.7,0.39 -0.52,0.02 -1.07,-0.04 -1.62,-0.17 -1.01,-0.22 -1.89,-0.78 -2.66,-1.67 -0.77,-0.88 -1.29,-1.88 -1.55,-2.99 -0.9,1.65 -2.02,2.87 -3.35,3.66 -1.33,0.79 -2.86,0.99 -4.57,0.6 -0.7,-0.16 -1.35,-0.39 -1.94,-0.69 -0.58,-0.3 -1.15,-0.75 -1.68,-1.32 -0.53,-0.58 -0.95,-1.26 -1.25,-2.05 -0.3,-0.79 -0.46,-1.77 -0.49,-2.96 -0.04,-1.18 0.11,-2.5 0.44,-3.95 0.27,-1.2 0.52,-2.33 0.76,-3.38 0.24,-1.05 0.44,-1.93 0.6,-2.63 0.09,-0.4 0.17,-0.75 0.24,-1.08 0.08,-0.32 0.12,-0.55 0.14,-0.67l0.01 -0.22 0.12 -0.01c1.65,0.63 4.14,1.33 7.47,2.08l9.25 2.1c3.24,0.73 5.79,1.18 7.64,1.34l0.1 0.1c-0.14,0.41 -0.3,1.05 -0.49,1.91zm-24.09 21.84c-2.74,-1.08 -4.5,-1.65 -5.26,-1.71 -0.56,1.43 -1.17,2.99 -1.83,4.68 -0.66,1.69 -1.13,3.05 -1.42,4.08l-0.41 1.52 -0.17 0.01c-0.35,-0.19 -0.75,-0.37 -1.17,-0.53 -0.06,-0.03 -0.44,-0.15 -1.14,-0.37l-0.08 -0.11c0.28,-0.56 0.59,-1.27 0.93,-2.14l3.85 -9.84c0.15,-0.38 0.28,-0.72 0.4,-1.04 0.12,-0.3 0.2,-0.52 0.23,-0.64l0.02 -0.22 0.12 0c1.54,0.88 3.91,1.94 7.09,3.18l8.82 3.45c3.1,1.22 5.56,2.04 7.37,2.48l0.08 0.11c-0.23,0.38 -0.51,0.97 -0.83,1.79l-3.71 9.49c-0.34,0.88 -0.59,1.61 -0.74,2.21l-0.14 0.03c-0.66,-0.32 -1.11,-0.52 -1.34,-0.61 -0.25,-0.1 -0.57,-0.19 -0.97,-0.3l-0.11 -0.12c1.59,-3.22 3.01,-6.43 4.27,-9.64 -0.63,-0.48 -2.33,-1.25 -5.09,-2.33l-2.8 -1.1c-0.99,2.53 -1.92,5.25 -2.8,8.19l-0.15 0.06c-0.29,-0.2 -0.66,-0.38 -1.12,-0.56 -0.44,-0.17 -0.83,-0.29 -1.18,-0.34l-0.07 -0.15c1.17,-2.27 2.34,-4.9 3.51,-7.9l-4.16 -1.63zm3.54 30.52c0.13,-0.23 0.19,-0.42 0.19,-0.56 0,-0.15 -0.05,-0.34 -0.14,-0.56 -0.56,-0.57 -1.71,-1.39 -3.45,-2.47l-9.16 -5.67c-1.07,-0.64 -1.95,-1.25 -2.63,-1.8 -0.72,-0.57 -1.28,-1.1 -1.69,-1.61 -0.4,-0.51 -0.69,-0.98 -0.89,-1.42 -0.19,-0.43 -0.27,-0.88 -0.23,-1.34 0.03,-0.46 0.12,-0.87 0.26,-1.26 0.13,-0.37 0.34,-0.8 0.61,-1.29 0.2,-0.34 0.46,-0.73 0.77,-1.14 0.31,-0.41 0.52,-0.66 0.65,-0.72l0.17 0c0.16,0.29 0.55,0.66 1.16,1.15 0.6,0.47 0.99,0.8 1.16,0.99l-0.15 0.34c-1.02,0.01 -1.77,0.43 -2.23,1.24 -0.61,1.08 0.55,2.57 3.5,4.45l9.54 6.1c2.05,1.31 3.99,2.34 5.83,3.06l0.08 0.09c-0.4,0.57 -0.81,1.24 -1.25,2.01l-4.99 8.75c-0.2,0.35 -0.38,0.66 -0.54,0.95 -0.17,0.29 -0.27,0.51 -0.3,0.65l-0.08 0.19 -0.12 -0.02c-1.4,-1.09 -3.58,-2.48 -6.55,-4.18l-8.24 -4.69c-2.73,-1.56 -5.04,-2.72 -6.94,-3.49l-0.07 -0.12c0.28,-0.36 0.63,-0.93 1.07,-1.7 0.2,-0.35 0.39,-0.68 0.55,-0.97 0.17,-0.29 0.28,-0.5 0.33,-0.62l0.05 -0.21 0.12 0.03c1.36,1.06 3.55,2.46 6.55,4.17l8.23 4.7c2.66,1.51 4.35,2.36 5.07,2.54 0.25,-0.04 0.43,-0.09 0.55,-0.15 0.11,-0.06 0.24,-0.23 0.38,-0.47l2.83 -4.95zm-16.43 26.62c0.47,-0.61 0.83,-1.28 1.07,-2 0.26,-0.73 0.36,-1.53 0.32,-2.4 -0.03,-0.88 -0.23,-1.77 -0.58,-2.67 -0.36,-0.91 -0.95,-1.86 -1.77,-2.88 -0.83,-1.02 -1.87,-2.01 -3.12,-2.97 -1.43,-1.09 -2.88,-1.89 -4.35,-2.38 -1.46,-0.5 -2.82,-0.69 -4.07,-0.57 -1.26,0.12 -2.41,0.46 -3.46,1 -1.05,0.55 -1.93,1.29 -2.65,2.23 -1.39,1.8 -1.76,3.82 -1.14,6.08 0.63,2.26 2.29,4.42 4.96,6.48 3.11,2.39 5.93,3.56 8.45,3.5 2.51,-0.05 4.63,-1.19 6.34,-3.42zm-16.64 3.52c-2.03,-1.55 -3.52,-3.35 -4.47,-5.38 -0.95,-2.03 -1.29,-4.13 -1.02,-6.29 0.27,-2.17 1.15,-4.22 2.64,-6.14 1.36,-1.78 3,-3.09 4.91,-3.96 1.91,-0.86 3.97,-1.16 6.16,-0.9 2.2,0.27 4.28,1.16 6.24,2.66 1.98,1.52 3.46,3.34 4.44,5.44 0.98,2.11 1.37,4.27 1.17,6.47 -0.2,2.21 -1,4.21 -2.39,6.03 -1.41,1.83 -3.11,3.18 -5.08,4.03 -1.98,0.86 -4.07,1.12 -6.29,0.8 -2.22,-0.31 -4.32,-1.23 -6.31,-2.76zm-2.12 9.1c2.32,2.39 4.21,4.15 5.68,5.29l0.02 0.14c-0.38,0.27 -0.88,0.7 -1.49,1.29 -0.61,0.59 -1.05,1.08 -1.35,1.47l-0.13 -0.03c-1.06,-1.48 -2.77,-3.42 -5.11,-5.83l-2.37 -2.43c-0.49,0.47 -0.82,0.96 -1.01,1.47 -0.18,0.51 -0.23,1.06 -0.15,1.64 0.08,0.59 0.2,1.15 0.36,1.67l0.59 2.02c0.23,0.82 0.41,1.57 0.52,2.25 0.14,0.82 0.22,1.58 0.26,2.27 0.04,0.69 0.02,1.43 -0.05,2.2 -0.06,0.76 -0.25,1.49 -0.54,2.16 -0.29,0.67 -0.7,1.26 -1.21,1.76 -0.18,0.18 -0.35,0.33 -0.51,0.45 -0.15,0.12 -0.26,0.2 -0.34,0.25 -0.08,0.05 -0.24,0.13 -0.47,0.25l-0.56 0.3 -0.3 -0.04 -1.64 -3.29 0.26 -0.41c0.93,-0.14 1.72,-0.53 2.37,-1.17 0.36,-0.34 0.61,-0.89 0.78,-1.65 0.17,-0.76 0.18,-1.68 0.04,-2.76 -0.09,-0.73 -0.32,-1.63 -0.68,-2.66 -0.36,-1.04 -0.64,-1.95 -0.83,-2.72 -0.19,-0.77 -0.19,-1.41 -0.01,-1.91l-0.07 -0.08c-0.71,0.49 -1.39,0.83 -2.04,1.02 -0.66,0.2 -1.24,0.29 -1.74,0.28 -0.5,-0.01 -1.29,-0.06 -2.38,-0.14l-0.55 -0.05c-1.12,-0.09 -2.17,-0.24 -3.16,-0.46 -0.99,-0.22 -1.81,-0.44 -2.45,-0.65 -0.63,-0.21 -1.43,-0.42 -2.39,-0.61 -0.96,-0.19 -1.97,-0.3 -3.03,-0.34l-0.01 -0.2c0.56,-0.4 1.3,-1.06 2.23,-1.97 0.22,-0.21 0.39,-0.38 0.5,-0.5 0.11,-0.13 0.23,-0.28 0.36,-0.45 0.13,-0.16 0.27,-0.33 0.42,-0.47 1.02,0.25 1.93,0.5 2.73,0.74l2.67 0.85 1.92 0.62 1.06 0.33 0.98 0.26c0.43,0.12 0.76,0.2 0.98,0.23l0.93 0.09c0.39,0.05 0.71,0.05 0.95,0l0.94 -0.17c0.38,-0.07 0.71,-0.17 1,-0.33 0.29,-0.15 0.62,-0.34 0.97,-0.56 0.36,-0.22 0.71,-0.49 1.07,-0.78l-3.01 -3.1c-2.25,-2.31 -4.15,-4.08 -5.69,-5.29l-0.03 -0.13c0.4,-0.28 0.9,-0.72 1.5,-1.3 0.61,-0.6 1.05,-1.08 1.34,-1.46l0.13 0.03c1.04,1.43 2.75,3.37 5.14,5.83l6.6 6.78zm-21.21 27.18c0.21,-0.16 0.35,-0.3 0.41,-0.44 0.06,-0.13 0.09,-0.32 0.11,-0.56 -0.28,-0.75 -0.98,-1.98 -2.12,-3.68l-5.97 -8.96c-0.71,-1.04 -1.25,-1.95 -1.64,-2.74 -0.42,-0.81 -0.71,-1.53 -0.87,-2.16 -0.15,-0.63 -0.23,-1.18 -0.22,-1.66 0.01,-0.48 0.12,-0.92 0.35,-1.32 0.22,-0.4 0.47,-0.74 0.75,-1.04 0.28,-0.28 0.65,-0.59 1.1,-0.91 0.33,-0.24 0.72,-0.48 1.17,-0.72 0.45,-0.25 0.75,-0.38 0.89,-0.39l0.16 0.08c0.02,0.32 0.22,0.82 0.57,1.52 0.36,0.68 0.58,1.14 0.65,1.38l-0.28 0.25c-0.94,-0.41 -1.78,-0.34 -2.54,0.2 -1.01,0.73 -0.57,2.57 1.33,5.5l6.14 9.51c1.32,2.05 2.66,3.79 4.03,5.22l0.03 0.11c-0.59,0.36 -1.25,0.79 -1.96,1.31l-8.18 5.89c-0.32,0.23 -0.62,0.44 -0.89,0.63 -0.27,0.2 -0.45,0.35 -0.54,0.46l-0.16 0.15 -0.09 -0.07c-0.82,-1.57 -2.23,-3.75 -4.22,-6.52l-5.54 -7.7c-1.84,-2.55 -3.46,-4.57 -4.87,-6.05l-0.01 -0.14c0.4,-0.22 0.96,-0.59 1.68,-1.11 0.33,-0.23 0.63,-0.45 0.9,-0.65 0.28,-0.2 0.47,-0.34 0.56,-0.43l0.13 -0.17 0.1 0.08c0.8,1.53 2.2,3.71 4.22,6.51l5.54 7.7c1.79,2.48 2.97,3.95 3.55,4.41 0.24,0.07 0.42,0.11 0.56,0.1 0.13,-0.01 0.32,-0.1 0.55,-0.27l4.62 -3.32zm-27.11 -4.45c-0.42,-0.52 -1.01,-0.89 -1.74,-1.1 -0.73,-0.21 -1.42,-0.12 -2.07,0.26 -0.65,0.38 -1.03,0.89 -1.14,1.56 -0.1,0.66 -0.07,1.69 0.08,3.08l9.84 7.11 7.91 5.48c-0.43,0.15 -1.12,0.51 -2.08,1.06 -0.85,0.5 -1.44,0.89 -1.79,1.18 -0.62,-0.6 -2.15,-1.87 -4.58,-3.8 -2.43,-1.95 -5.36,-4.19 -8.79,-6.72 1.04,7.99 1.98,13.54 2.83,16.65 -0.31,0.09 -0.89,0.38 -1.73,0.86 -0.51,0.3 -0.88,0.56 -1.12,0.79l-2.13 -20.57c-0.12,-1.24 -0.19,-2.32 -0.18,-3.22 -0.01,-0.9 0.08,-1.8 0.24,-2.68 0.16,-0.88 0.47,-1.65 0.92,-2.29 0.44,-0.64 1.02,-1.18 1.75,-1.6 0.74,-0.43 1.56,-0.73 2.45,-0.88 0.9,-0.16 1.62,-0.13 2.18,0.07l0.09 0.14c-0.23,0.77 -0.37,2.25 -0.42,4.46l-0.52 0.16zm-19.89 19.42l-3.43 -8.77c-0.25,-0.65 -0.6,-1.06 -1.05,-1.23 -0.45,-0.17 -1.15,-0.07 -2.09,0.3 -4.14,1.61 -5.5,4.24 -4.08,7.87 0.2,0.5 0.41,0.95 0.65,1.34 0.23,0.39 0.57,0.78 1.01,1.18 0.44,0.4 0.92,0.68 1.47,0.87 0.53,0.18 1.22,0.24 2.06,0.18 0.83,-0.07 1.75,-0.29 2.75,-0.68l2.71 -1.06zm4.75 3.01c1.17,3 2.23,5.37 3.18,7.07l-0.04 0.15c-0.48,0.1 -1.13,0.31 -1.95,0.63l-9.39 3.66c-0.84,0.34 -1.55,0.65 -2.11,0.95l-0.12 -0.07c-0.37,-1.18 -0.72,-2.07 -1.04,-2.67l0.02 -0.19c3.57,-0.72 6.95,-1.7 10.16,-2.95 -0.06,-0.64 -0.66,-2.42 -1.81,-5.35l-0.98 -2.51 -3.17 1.24c-1.08,0.42 -2.08,0.74 -3.01,0.94 -0.93,0.21 -1.74,0.32 -2.44,0.33 -0.7,0.01 -1.34,-0.06 -1.91,-0.23 -0.59,-0.17 -1.08,-0.38 -1.48,-0.64 -0.41,-0.25 -0.78,-0.59 -1.12,-0.99 -0.34,-0.41 -0.62,-0.81 -0.84,-1.2 -0.22,-0.4 -0.42,-0.86 -0.62,-1.37 -0.34,-0.88 -0.55,-1.72 -0.62,-2.52 -0.06,-0.79 -0.02,-1.5 0.12,-2.12 0.16,-0.62 0.43,-1.2 0.81,-1.77 0.38,-0.57 0.8,-1.06 1.25,-1.47 0.45,-0.42 1,-0.82 1.64,-1.21 0.64,-0.39 1.24,-0.7 1.82,-0.93 0.58,-0.22 1.22,-0.47 1.92,-0.75 0.46,-0.18 1.13,-0.44 2.01,-0.78 0.88,-0.34 1.48,-0.58 1.81,-0.71 0.37,-0.14 0.71,-0.27 1.04,-0.4 0.34,-0.13 0.57,-0.23 0.7,-0.3l0.2 -0.11 0.08 0.09c0.42,1.81 1.24,4.26 2.45,7.36l3.44 8.82zm-53.91 5.54c-0.39,-2.25 -0.77,-3.85 -1.14,-4.81 -0.37,-0.95 -0.87,-1.39 -1.49,-1.34 -0.77,0.05 -1.2,-0.15 -1.27,-0.61l-0.53 -5.78 0.05 -0.13 1.24 -0.21 0.09 0.1 0.39 1.13c0.1,0.31 0.24,0.65 0.41,1.04 0.18,0.39 0.35,0.71 0.52,0.94 0.16,0.23 0.37,0.47 0.61,0.72 0.24,0.25 0.5,0.44 0.77,0.55 0.26,0.11 0.58,0.19 0.95,0.24 0.37,0.04 0.76,0.03 1.18,-0.04l14.58 -2.49c0.38,-0.07 0.74,-0.13 1.08,-0.19 0.33,-0.06 0.57,-0.11 0.7,-0.15l0.2 -0.09 0.05 0.1c0.05,1.86 0.36,4.43 0.92,7.71l1.6 9.34c0.51,3.01 1.09,5.53 1.73,7.58l-0.06 0.12c-0.46,0.02 -1.14,0.11 -2,0.26 -0.4,0.07 -0.76,0.13 -1.1,0.19 -0.32,0.05 -0.55,0.11 -0.67,0.17l-0.2 0.06 -0.05 -0.1c-0.04,-1.74 -0.35,-4.3 -0.93,-7.71l-1.6 -9.33c-0.49,-2.9 -0.9,-4.68 -1.22,-5.34 -0.18,-0.36 -0.58,-0.49 -1.18,-0.39l-9.99 1.71c-0.6,0.1 -0.93,0.35 -0.98,0.76 -0.08,0.73 0.13,2.54 0.62,5.44l1.6 9.33c0.58,3.41 1.14,5.93 1.68,7.58l-0.02 0.11c-0.44,0.02 -1.1,0.11 -2,0.26 -0.38,0.06 -0.74,0.13 -1.08,0.18 -0.33,0.06 -0.57,0.12 -0.69,0.18l-0.2 0.06 -0.1 -0.09c-0.07,-2.15 -0.36,-4.71 -0.88,-7.72l-1.59 -9.34zm-11.96 1.21c-0.21,-2.94 -0.44,-4.77 -0.71,-5.49 -1.53,0.11 -3.21,0.23 -5.02,0.36 -1.81,0.13 -3.24,0.29 -4.29,0.48l-1.55 0.28 -0.09 -0.15c0.02,-0.4 0.02,-0.83 -0.01,-1.28 -0.01,-0.07 -0.06,-0.47 -0.16,-1.2l0.07 -0.11c0.62,0.01 1.39,-0.02 2.32,-0.08l10.55 -0.76c0.4,-0.02 0.77,-0.05 1.1,-0.08 0.33,-0.02 0.56,-0.04 0.68,-0.07l0.21 -0.07 0.05 0.1c-0.13,1.77 -0.07,4.37 0.17,7.77l0.68 9.45c0.23,3.33 0.55,5.9 0.93,7.72l-0.07 0.12c-0.44,-0.05 -1.09,-0.04 -1.97,0.02l-10.17 0.73c-0.93,0.06 -1.7,0.16 -2.31,0.28l-0.09 -0.11c0,-0.74 0,-1.23 -0.02,-1.48 -0.02,-0.27 -0.07,-0.6 -0.15,-1l0.06 -0.15c3.59,0.05 7.11,-0.05 10.54,-0.29 0.16,-0.77 0.13,-2.64 -0.08,-5.59l-0.21 -3.01c-2.7,0.19 -5.57,0.53 -8.59,1l-0.12 -0.11c0.05,-0.35 0.05,-0.76 0.02,-1.25 -0.04,-0.48 -0.1,-0.88 -0.2,-1.22l0.1 -0.12c2.55,0.07 5.43,0 8.65,-0.23l-0.32 -4.46zm-37.74 16.4c-0.38,-0.03 -0.75,-0.05 -1.09,-0.08 -0.33,-0.03 -0.58,-0.03 -0.72,0l-0.21 0.01 -0.03 -0.11c0.41,-1.82 0.74,-4.39 1,-7.71l0.73 -9.45c0.23,-3.04 0.29,-5.64 0.16,-7.78l0.09 -0.1c0.46,0.09 1.13,0.17 2.01,0.24 0.4,0.03 0.77,0.06 1.11,0.08 0.32,0.03 0.55,0.04 0.69,0.03l0.21 -0.04 0.03 0.11c-0.39,1.7 -0.72,4.27 -0.98,7.71l-0.73 9.45c-0.23,2.98 -0.27,4.83 -0.13,5.55 0.14,0.2 0.27,0.34 0.38,0.42 0.12,0.09 0.32,0.15 0.6,0.17l10.26 0.79c0.27,0.02 0.48,0 0.61,-0.07 0.13,-0.06 0.28,-0.18 0.44,-0.36 0.26,-0.69 0.5,-2.52 0.73,-5.5l0.74 -9.45c0.26,-3.45 0.33,-6.04 0.21,-7.77l0.05 -0.1c0.43,0.09 1.09,0.16 2,0.23 0.38,0.03 0.75,0.06 1.09,0.09 0.34,0.02 0.57,0.04 0.72,0.03l0.21 -0.04 0.07 0.11c-0.46,2.1 -0.8,4.67 -1.03,7.71l-0.74 9.46c-0.25,3.32 -0.32,5.9 -0.2,7.76l-0.05 0.11c-0.46,-0.09 -1.13,-0.17 -2.01,-0.24l-16.22 -1.26zm-27.82 -13.4c-0.7,3.16 -1.12,5.71 -1.28,7.67l-0.11 0.09c-0.43,-0.17 -1.07,-0.35 -1.91,-0.54 -0.83,-0.19 -1.5,-0.29 -1.98,-0.32l-0.01 -0.12c0.61,-1.62 1.3,-4.12 2.04,-7.49l2.05 -9.25c0.72,-3.25 1.16,-5.8 1.31,-7.65l0.1 -0.1c0.45,0.18 1.08,0.36 1.89,0.54 0.86,0.19 1.53,0.3 2,0.32l0.02 0.12c-0.66,1.74 -1.35,4.24 -2.07,7.49l-1.01 4.57 13.09 2.9 1.01 -4.57c0.7,-3.15 1.13,-5.7 1.29,-7.66l0.1 -0.09c0.45,0.17 1.09,0.35 1.91,0.54 0.85,0.19 1.51,0.29 1.99,0.32l0.01 0.12c-0.62,1.66 -1.31,4.15 -2.05,7.49l-2.05 9.25c-0.72,3.25 -1.15,5.8 -1.3,7.65l-0.1 0.1c-0.44,-0.18 -1.07,-0.36 -1.9,-0.54 -0.85,-0.19 -1.51,-0.3 -2,-0.32l-0.01 -0.13c0.65,-1.7 1.33,-4.2 2.06,-7.49l0.67 -3.01 -13.09 -2.9 -0.67 3.01zm-21.83 -14.84c-0.01,3.42 0.06,6.87 0.21,10.33l0.07 0.02 7.26 -7.44c-0.22,-0.08 -0.8,-0.31 -1.75,-0.67 -0.96,-0.37 -1.63,-0.63 -2.03,-0.79 -1.33,-0.51 -2.58,-1 -3.76,-1.45zm8.88 1.52c2.85,-3.03 4.93,-5.44 6.24,-7.22 0.27,0.18 0.8,0.43 1.6,0.74 0.54,0.21 0.97,0.33 1.29,0.38l-19.88 19.76 -1 -0.39 -0.2 -9.88 -0.2 -11.19c-0.07,-3.14 -0.16,-5.36 -0.28,-6.64 0.39,0.24 1.1,0.55 2.12,0.95 0.79,0.3 1.42,0.5 1.85,0.59 -0.23,2.18 -0.37,5.34 -0.43,9.46 1.35,0.53 2.76,1.07 4.23,1.64 1.73,0.67 3.28,1.27 4.66,1.8zm-34.59 0.07c0.46,0.26 0.89,0.47 1.3,0.62 0.4,0.16 0.86,0.26 1.37,0.28 0.51,0.04 0.99,-0.02 1.44,-0.19 0.45,-0.17 0.92,-0.48 1.41,-0.95 0.5,-0.47 0.96,-1.09 1.39,-1.85 0.47,-0.83 0.78,-1.6 0.94,-2.29 0.16,-0.7 0.19,-1.32 0.09,-1.86 -0.1,-0.53 -0.33,-1.04 -0.7,-1.53 -0.36,-0.49 -0.79,-0.92 -1.27,-1.29 -0.47,-0.37 -1.06,-0.76 -1.76,-1.15l-1.62 -0.92 -4.55 8.06c-0.3,0.53 -0.33,1.01 -0.09,1.45 0.24,0.44 0.92,0.98 2.05,1.62zm8.59 -9.08c0.48,0.46 0.92,0.97 1.29,1.52 0.71,1.06 1.13,2.22 1.24,3.48 0.12,1.26 -0.19,2.53 -0.92,3.81 -0.94,1.67 -2.32,2.73 -4.15,3.17 -1.11,0.27 -2.18,0.24 -3.21,-0.08 -1.04,-0.33 -2.22,-0.87 -3.56,-1.63 -0.26,-0.15 -0.94,-0.53 -2.04,-1.15 -1.1,-0.62 -1.82,-1.03 -2.17,-1.23 -0.35,-0.19 -0.66,-0.37 -0.95,-0.53 -0.29,-0.17 -0.49,-0.29 -0.6,-0.36l-0.17 -0.11 0 -0.14c1.18,-1.56 2.57,-3.75 4.15,-6.56l4.66 -8.24c1.64,-2.9 2.8,-5.21 3.47,-6.95l0.09 -0.08c0.35,0.27 0.93,0.62 1.72,1.07 0.34,0.19 0.65,0.37 0.94,0.53 0.29,0.16 0.49,0.27 0.62,0.32l0.19 0.04 0.01 0.14c-1.13,1.48 -2.51,3.68 -4.15,6.58l-1.64 2.9c0.82,0.47 1.57,0.89 2.22,1.26 1.29,-0.46 2.95,-1.17 4.99,-2.14 3.67,-1.76 6,-3.08 7,-3.97 0.39,0.31 1.14,0.76 2.24,1.38 0.72,0.41 1.32,0.72 1.81,0.9l0.02 0.14c-1.06,0.36 -3.29,1.34 -6.69,2.95 -3.4,1.61 -5.54,2.6 -6.41,2.98zm-33.68 -10.27l5.95 -6.94c-0.22,-0.53 -0.91,-1.29 -2.07,-2.28 -1.51,-1.29 -2.92,-1.92 -4.25,-1.88 -1.33,0.04 -2.69,0.88 -4.09,2.5 -0.58,0.68 -1,1.34 -1.26,1.98 -0.26,0.65 -0.38,1.22 -0.37,1.72 0,0.51 0.13,1.01 0.36,1.51 0.24,0.5 0.51,0.93 0.83,1.3 0.31,0.36 0.7,0.73 1.15,1.12 1.01,0.86 1.79,1.35 2.34,1.47 0.56,0.12 1.03,-0.05 1.41,-0.5zm5.56 -1.37c-2.17,2.53 -3.75,4.58 -4.76,6.15l-0.13 0.03c-0.36,-0.3 -0.86,-0.72 -1.51,-1.27 -0.29,-0.25 -0.99,-0.85 -2.1,-1.8 -1.09,-0.94 -1.77,-1.52 -2.02,-1.73 -1.04,-0.9 -1.88,-1.8 -2.51,-2.72 -0.63,-0.92 -1.04,-1.77 -1.25,-2.53 -0.19,-0.77 -0.24,-1.53 -0.17,-2.26 0.08,-0.74 0.25,-1.39 0.51,-1.94 0.26,-0.55 0.59,-1.05 0.99,-1.52 0.45,-0.52 0.97,-0.97 1.57,-1.36 0.59,-0.38 1.3,-0.68 2.11,-0.89 0.81,-0.21 1.65,-0.29 2.53,-0.23 0.88,0.07 1.84,0.33 2.89,0.8 1.05,0.48 2.08,1.15 3.11,2.02 1.01,0.87 1.74,1.67 2.21,2.43l2.16 -2.53c2.1,-2.45 3.69,-4.5 4.75,-6.15l0.13 -0.04c0.32,0.37 0.79,0.83 1.44,1.38 0.64,0.55 1.16,0.95 1.57,1.19l-0.02 0.14c-1.33,1.17 -3.11,3.05 -5.33,5.64l-6.17 7.19zm-13.14 -24.67c2.12,-2.05 3.36,-3.41 3.74,-4.08 -1.07,-1.1 -2.24,-2.3 -3.51,-3.6 -1.26,-1.3 -2.31,-2.29 -3.12,-2.98l-1.22 -1 0.06 -0.16c0.32,-0.24 0.64,-0.53 0.97,-0.84 0.04,-0.05 0.31,-0.35 0.81,-0.89l0.13 -0.03c0.39,0.49 0.91,1.06 1.56,1.73l7.37 7.58c0.28,0.29 0.54,0.55 0.77,0.79 0.23,0.24 0.4,0.4 0.5,0.48l0.19 0.11 -0.05 0.1c-1.44,1.05 -3.38,2.76 -5.83,5.14l-6.79 6.61c-2.39,2.32 -4.16,4.22 -5.3,5.68l-0.14 0.03c-0.24,-0.37 -0.67,-0.86 -1.29,-1.5l-7.1 -7.31c-0.66,-0.67 -1.22,-1.2 -1.71,-1.58l0.03 -0.14c0.57,-0.47 0.94,-0.8 1.12,-0.97 0.19,-0.19 0.41,-0.44 0.66,-0.76l0.16 -0.05c2.27,2.78 4.61,5.41 7.01,7.87 0.7,-0.36 2.1,-1.59 4.23,-3.66l2.16 -2.1c-1.89,-1.94 -3.99,-3.92 -6.3,-5.93l0.01 -0.16c0.3,-0.18 0.62,-0.45 0.97,-0.79 0.34,-0.33 0.61,-0.64 0.8,-0.93l0.16 -0.01c1.58,2 3.5,4.16 5.75,6.47l3.2 -3.12zm-21.53 -21.79c-1.88,2.86 -3.69,5.78 -5.46,8.77l0.05 0.06 10.14 -2.29c-0.14,-0.19 -0.5,-0.69 -1.1,-1.52 -0.6,-0.83 -1.02,-1.41 -1.27,-1.76 -0.84,-1.16 -1.62,-2.24 -2.36,-3.26zm6.62 6.11c4.03,-0.99 7.09,-1.88 9.16,-2.66 0.13,0.3 0.43,0.8 0.94,1.49 0.34,0.47 0.63,0.81 0.88,1.02l-27.44 5.74 -0.63 -0.87 5.22 -8.39 5.92 -9.49c1.66,-2.68 2.79,-4.58 3.39,-5.72 0.2,0.41 0.62,1.05 1.26,1.95 0.5,0.68 0.91,1.19 1.23,1.5 -1.39,1.71 -3.22,4.28 -5.52,7.7 0.85,1.18 1.74,2.4 2.66,3.68 1.09,1.5 2.06,2.85 2.93,4.05zm-20.45 -15.08c-2.97,1.5 -5.22,2.77 -6.75,3.83l-0.14 -0.02c-0.14,-0.45 -0.4,-1.06 -0.78,-1.81 -0.38,-0.76 -0.72,-1.33 -1,-1.73l0.07 -0.11c1.73,-0.57 4.09,-1.62 7.1,-3.13l3.03 -1.53c-0.31,-0.6 -0.67,-1.07 -1.1,-1.4 -0.44,-0.33 -0.94,-0.54 -1.53,-0.64 -0.58,-0.1 -1.14,-0.16 -1.7,-0.16l-2.09 -0.04c-0.86,-0.03 -1.63,-0.08 -2.31,-0.18 -0.82,-0.12 -1.57,-0.27 -2.24,-0.44 -0.67,-0.17 -1.37,-0.4 -2.08,-0.7 -0.72,-0.29 -1.35,-0.69 -1.91,-1.17 -0.55,-0.48 -0.99,-1.05 -1.31,-1.69 -0.11,-0.22 -0.2,-0.43 -0.27,-0.61 -0.07,-0.18 -0.12,-0.32 -0.14,-0.41 -0.02,-0.09 -0.05,-0.26 -0.1,-0.52l-0.11 -0.62 0.13 -0.27 3.62 -0.58 0.31 0.37c-0.14,0.93 0,1.8 0.41,2.62 0.22,0.43 0.66,0.85 1.34,1.23 0.67,0.39 1.55,0.68 2.62,0.87 0.73,0.13 1.65,0.18 2.74,0.15 1.1,-0.03 2.05,-0.03 2.84,0.03 0.8,0.05 1.41,0.24 1.83,0.56l0.1 -0.04c-0.26,-0.82 -0.38,-1.57 -0.36,-2.26 0.01,-0.68 0.1,-1.26 0.25,-1.74 0.16,-0.47 0.45,-1.21 0.85,-2.23l0.21 -0.5c0.43,-1.04 0.89,-2.01 1.39,-2.88 0.51,-0.88 0.97,-1.6 1.36,-2.14 0.39,-0.54 0.82,-1.24 1.3,-2.1 0.47,-0.85 0.88,-1.79 1.24,-2.78l0.19 0.05c0.22,0.65 0.62,1.56 1.2,2.72 0.14,0.27 0.25,0.48 0.34,0.62 0.09,0.15 0.19,0.31 0.31,0.48 0.12,0.17 0.24,0.35 0.33,0.54 -0.55,0.9 -1.06,1.69 -1.52,2.38l-1.62 2.3 -1.17 1.64 -0.63 0.91 -0.55 0.85c-0.24,0.38 -0.42,0.67 -0.51,0.87l-0.37 0.86c-0.16,0.37 -0.25,0.67 -0.29,0.91l-0.11 0.95c-0.05,0.38 -0.05,0.72 0.01,1.05 0.06,0.32 0.14,0.69 0.24,1.1 0.11,0.4 0.25,0.82 0.43,1.25l3.86 -1.94c2.88,-1.45 5.14,-2.73 6.75,-3.84l0.13 0.01c0.16,0.47 0.42,1.07 0.8,1.83 0.38,0.75 0.71,1.32 0.98,1.71l-0.06 0.12c-1.68,0.56 -4.05,1.61 -7.1,3.14l-8.46 4.26z"/>
    <path class="fil2" d="M34.66 265.15c2.17,-0.72 3.7,-1.33 4.59,-1.84 0.88,-0.51 1.25,-1.06 1.11,-1.67 -0.17,-0.75 -0.03,-1.2 0.41,-1.35l5.64 -1.37 0.13 0.03 0.4 1.19 -0.09 0.11 -1.06 0.54c-0.29,0.15 -0.61,0.34 -0.97,0.56 -0.36,0.24 -0.64,0.46 -0.85,0.66 -0.2,0.19 -0.41,0.43 -0.62,0.71 -0.21,0.28 -0.36,0.56 -0.43,0.84 -0.07,0.28 -0.11,0.6 -0.1,0.97 0.01,0.37 0.08,0.76 0.22,1.17l4.62 14.05c0.12,0.37 0.24,0.71 0.34,1.04 0.11,0.32 0.2,0.54 0.26,0.67l0.12 0.18 -0.1 0.07c-1.83,0.33 -4.32,1.01 -7.49,2.05l-9 2.96c-2.9,0.96 -5.31,1.9 -7.23,2.84l-0.13 -0.04c-0.09,-0.46 -0.28,-1.11 -0.55,-1.94 -0.13,-0.39 -0.25,-0.74 -0.35,-1.06 -0.11,-0.31 -0.2,-0.53 -0.27,-0.64l-0.09 -0.19 0.09 -0.07c1.71,-0.29 4.2,-0.98 7.48,-2.06l9 -2.96c2.79,-0.92 4.49,-1.58 5.09,-1.99 0.34,-0.24 0.41,-0.65 0.22,-1.23l-3.17 -9.63c-0.19,-0.57 -0.49,-0.86 -0.9,-0.86 -0.73,0.03 -2.49,0.5 -5.28,1.42l-9 2.96c-3.28,1.08 -5.69,2.01 -7.25,2.79l-0.11 0c-0.08,-0.43 -0.27,-1.07 -0.55,-1.94 -0.12,-0.37 -0.24,-0.71 -0.34,-1.04 -0.11,-0.32 -0.2,-0.55 -0.28,-0.66l-0.09 -0.19 0.08 -0.11c2.11,-0.39 4.6,-1.06 7.51,-2.01l8.99 -2.96zm-12 -7.15c-3.29,0.56 -5.81,1.11 -7.58,1.67l-0.13 -0.06c0,-0.47 -0.07,-1.12 -0.21,-1.96 -0.14,-0.83 -0.29,-1.47 -0.45,-1.94l0.1 -0.09c1.83,-0.04 4.4,-0.34 7.73,-0.91l9.36 -1.58c2.03,-0.34 3.63,-0.65 4.81,-0.92l-23.6 -9.19c-0.26,0.04 -0.4,0.07 -0.39,0.08 0,0.01 -0.01,0.01 -0.02,0.01l-0.13 -0.06c0,-0.47 -0.07,-1.13 -0.22,-1.97 -0.13,-0.82 -0.28,-1.47 -0.44,-1.92l0.1 -0.1c1.74,-0.04 4.31,-0.34 7.71,-0.92l9.35 -1.58c3.27,-0.55 5.8,-1.11 7.58,-1.66l0.12 0.05c0.01,0.49 0.08,1.14 0.22,1.96 0.14,0.84 0.29,1.49 0.44,1.94l-0.1 0.09c-1.83,0.05 -4.36,0.33 -7.59,0.88l-9.2 1.56c-1.97,0.33 -3.53,0.63 -4.68,0.91l23.59 9.17 0.12 0.05c0.01,0.49 0.08,1.14 0.22,1.98 0.14,0.83 0.29,1.47 0.44,1.92l-0.1 0.1c-1.77,0.04 -4.34,0.34 -7.71,0.91l-9.34 1.58zm-11.21 -37.67c0.01,0.53 0.06,1.01 0.13,1.43 0.07,0.43 0.22,0.87 0.46,1.33 0.23,0.45 0.53,0.83 0.9,1.13 0.38,0.3 0.88,0.54 1.54,0.73 0.66,0.19 1.43,0.27 2.31,0.25 0.94,-0.02 1.76,-0.14 2.44,-0.36 0.69,-0.22 1.23,-0.51 1.64,-0.87 0.4,-0.36 0.73,-0.82 0.96,-1.39 0.24,-0.56 0.39,-1.15 0.46,-1.75 0.08,-0.6 0.11,-1.3 0.09,-2.11l-0.04 -1.85 -9.26 0.21c-0.6,0.01 -1.03,0.23 -1.29,0.66 -0.25,0.43 -0.37,1.29 -0.34,2.59zm12.2 2.74c-0.15,0.65 -0.37,1.28 -0.65,1.88 -0.55,1.16 -1.34,2.11 -2.36,2.85 -1.02,0.75 -2.27,1.13 -3.75,1.16 -1.91,0.05 -3.53,-0.6 -4.84,-1.95 -0.8,-0.81 -1.32,-1.75 -1.57,-2.8 -0.25,-1.06 -0.39,-2.35 -0.42,-3.89 -0.01,-0.3 -0.03,-1.08 -0.05,-2.34 -0.03,-1.27 -0.05,-2.1 -0.06,-2.5 -0.01,-0.39 -0.02,-0.75 -0.03,-1.09 0,-0.33 0,-0.56 0.01,-0.69l0.01 -0.21 0.11 -0.07c1.94,0.22 4.53,0.29 7.76,0.22l9.47 -0.21c3.33,-0.08 5.91,-0.26 7.75,-0.57l0.11 0.03c-0.05,0.45 -0.06,1.12 -0.04,2.03 0.01,0.39 0.02,0.75 0.02,1.08 0.01,0.33 0.02,0.56 0.04,0.69l0.07 0.2 -0.12 0.07c-1.84,-0.21 -4.44,-0.28 -7.77,-0.2l-3.34 0.07c0.03,0.95 0.04,1.8 0.06,2.55 1.05,0.88 2.52,1.94 4.39,3.2 3.38,2.25 5.71,3.58 6.99,3.99 -0.06,0.49 -0.08,1.36 -0.05,2.63 0.02,0.83 0.07,1.5 0.16,2.01l-0.11 0.08c-0.85,-0.72 -2.84,-2.14 -5.96,-4.23 -3.12,-2.1 -5.06,-3.44 -5.83,-3.99zm-5.04 -55.42l6.98 1.95 0.82 -2.91c0.47,-1.67 0.52,-3.05 0.16,-4.13 -0.37,-1.07 -1.29,-1.82 -2.78,-2.24 -0.9,-0.25 -1.7,-0.32 -2.42,-0.21 -0.72,0.12 -1.31,0.37 -1.77,0.78 -0.45,0.4 -0.81,0.84 -1.09,1.31 -0.27,0.48 -0.5,1 -0.66,1.58 -0.28,1 -0.42,1.76 -0.44,2.28 -0.01,0.53 0.06,0.89 0.25,1.1 0.18,0.2 0.5,0.36 0.95,0.49zm8.59 2.4l8.96 2.51c0.62,0.17 1.14,0.02 1.59,-0.47 0.44,-0.48 0.84,-1.37 1.2,-2.65 0.3,-1.05 0.47,-1.97 0.51,-2.78 0.06,-0.81 0.01,-1.48 -0.13,-2.01 -0.14,-0.52 -0.38,-0.97 -0.72,-1.36 -0.34,-0.38 -0.7,-0.67 -1.11,-0.88 -0.4,-0.2 -0.88,-0.38 -1.45,-0.54 -1.78,-0.5 -3.38,-0.36 -4.83,0.41 -1.45,0.78 -2.46,2.21 -3.05,4.3l-0.97 3.47zm-12.31 -1.72c0.18,-0.66 0.43,-1.52 0.72,-2.57 0.29,-1.05 0.5,-1.77 0.6,-2.16 0.38,-1.33 0.83,-2.47 1.36,-3.41 0.53,-0.94 1.06,-1.65 1.6,-2.13 0.54,-0.49 1.13,-0.84 1.76,-1.05 0.63,-0.22 1.21,-0.32 1.72,-0.3 0.52,0.01 1.06,0.09 1.61,0.25 0.99,0.27 1.85,0.87 2.57,1.79 0.72,0.93 1.19,1.95 1.4,3.07 0.98,-1.6 2.16,-2.76 3.53,-3.48 1.37,-0.73 2.9,-0.85 4.59,-0.37 0.69,0.19 1.33,0.45 1.9,0.79 0.57,0.32 1.11,0.79 1.61,1.4 0.51,0.6 0.89,1.3 1.15,2.11 0.26,0.8 0.38,1.79 0.35,2.97 -0.03,1.19 -0.24,2.5 -0.64,3.93 -0.33,1.18 -0.65,2.3 -0.94,3.34 -0.29,1.04 -0.53,1.9 -0.72,2.59 -0.11,0.39 -0.21,0.75 -0.3,1.07 -0.09,0.32 -0.15,0.54 -0.17,0.67l-0.02 0.21 -0.12 0.01c-1.62,-0.72 -4.07,-1.54 -7.36,-2.46l-9.13 -2.56c-3.21,-0.89 -5.73,-1.47 -7.57,-1.72l-0.09 -0.11c0.16,-0.4 0.35,-1.02 0.59,-1.88zm24.42 -20.43c2.74,1.07 4.49,1.64 5.25,1.71 0.56,-1.43 1.18,-3 1.84,-4.68 0.66,-1.69 1.13,-3.06 1.41,-4.08l0.41 -1.53 0.17 -0.01c0.36,0.19 0.75,0.37 1.17,0.54 0.06,0.02 0.44,0.14 1.15,0.36l0.07 0.12c-0.28,0.55 -0.58,1.26 -0.92,2.13l-3.85 9.85c-0.15,0.38 -0.29,0.72 -0.41,1.03 -0.12,0.31 -0.2,0.53 -0.22,0.65l-0.03 0.22 -0.11 -0.01c-1.55,-0.87 -3.91,-1.93 -7.09,-3.18l-8.83 -3.45c-3.1,-1.21 -5.56,-2.04 -7.36,-2.47l-0.08 -0.12c0.23,-0.37 0.5,-0.97 0.82,-1.79l3.72 -9.49c0.34,-0.87 0.58,-1.61 0.74,-2.21l0.13 -0.03c0.67,0.32 1.12,0.52 1.35,0.61 0.25,0.1 0.57,0.2 0.97,0.3l0.11 0.12c-1.59,3.22 -3.02,6.44 -4.27,9.64 0.62,0.48 2.32,1.26 5.08,2.33l2.81 1.1c0.99,-2.52 1.91,-5.25 2.79,-8.18l0.15 -0.06c0.29,0.19 0.66,0.37 1.12,0.55 0.45,0.17 0.84,0.29 1.18,0.35l0.07 0.14c-1.16,2.27 -2.33,4.9 -3.51,7.91l4.17 1.63zm-3.27 -30.28c-0.13,0.23 -0.19,0.43 -0.19,0.57 0,0.15 0.05,0.33 0.14,0.56 0.57,0.56 1.72,1.38 3.47,2.45l9.18 5.62c1.08,0.64 1.95,1.24 2.64,1.8 0.72,0.56 1.29,1.09 1.7,1.59 0.4,0.51 0.7,0.98 0.89,1.42 0.2,0.43 0.28,0.88 0.24,1.34 -0.03,0.46 -0.12,0.87 -0.25,1.26 -0.13,0.38 -0.34,0.81 -0.61,1.29 -0.2,0.35 -0.45,0.73 -0.76,1.15 -0.31,0.41 -0.52,0.66 -0.65,0.73l-0.17 -0.01c-0.16,-0.29 -0.55,-0.66 -1.16,-1.14 -0.61,-0.47 -1,-0.8 -1.17,-0.99l0.15 -0.34c1.02,-0.02 1.76,-0.44 2.22,-1.25 0.61,-1.08 -0.56,-2.56 -3.51,-4.43l-9.57 -6.05c-2.06,-1.31 -4.01,-2.32 -5.85,-3.04l-0.08 -0.09c0.39,-0.57 0.8,-1.25 1.24,-2.02l4.95 -8.77c0.19,-0.35 0.37,-0.66 0.53,-0.95 0.17,-0.3 0.27,-0.51 0.3,-0.65l0.08 -0.19 0.12 0.02c1.4,1.08 3.59,2.46 6.57,4.14l8.26 4.66c2.73,1.55 5.06,2.7 6.96,3.45l0.06 0.12c-0.27,0.37 -0.62,0.94 -1.06,1.71 -0.19,0.35 -0.38,0.68 -0.54,0.97 -0.17,0.3 -0.28,0.5 -0.32,0.62l-0.06 0.21 -0.12 -0.02c-1.36,-1.06 -3.55,-2.45 -6.56,-4.14l-8.26 -4.66c-2.66,-1.51 -4.36,-2.34 -5.07,-2.52 -0.25,0.04 -0.44,0.09 -0.55,0.15 -0.12,0.06 -0.25,0.23 -0.39,0.47l-2.8 4.96zm16.77 -26.52c-0.46,0.61 -0.82,1.28 -1.07,2 -0.25,0.73 -0.35,1.53 -0.32,2.41 0.03,0.88 0.23,1.77 0.59,2.67 0.35,0.9 0.95,1.86 1.77,2.87 0.83,1.02 1.87,2.01 3.11,2.97 1.43,1.1 2.89,1.9 4.35,2.39 1.47,0.49 2.83,0.68 4.08,0.56 1.25,-0.12 2.41,-0.45 3.45,-1 1.05,-0.54 1.94,-1.28 2.66,-2.22 1.38,-1.8 1.76,-3.83 1.13,-6.08 -0.63,-2.26 -2.28,-4.42 -4.96,-6.48 -3.11,-2.39 -5.92,-3.56 -8.44,-3.51 -2.52,0.06 -4.63,1.2 -6.35,3.42zm16.65 -3.52c2.02,1.56 3.51,3.36 4.46,5.38 0.96,2.03 1.3,4.13 1.02,6.3 -0.27,2.17 -1.15,4.21 -2.63,6.14 -1.36,1.77 -3,3.08 -4.91,3.95 -1.92,0.87 -3.97,1.17 -6.17,0.9 -2.2,-0.26 -4.27,-1.15 -6.23,-2.66 -1.98,-1.52 -3.47,-3.33 -4.45,-5.44 -0.98,-2.11 -1.37,-4.26 -1.17,-6.47 0.21,-2.2 1,-4.21 2.39,-6.02 1.42,-1.84 3.11,-3.19 5.09,-4.04 1.97,-0.85 4.07,-1.12 6.28,-0.8 2.22,0.31 4.33,1.23 6.32,2.76zm2.39 -8.86c-2.32,-2.38 -4.22,-4.15 -5.68,-5.29l-0.02 -0.13c0.38,-0.27 0.88,-0.71 1.48,-1.29 0.61,-0.59 1.05,-1.08 1.35,-1.47l0.13 0.03c1.06,1.47 2.77,3.42 5.12,5.83l2.37 2.43c0.48,-0.47 0.82,-0.96 1,-1.47 0.18,-0.51 0.24,-1.06 0.15,-1.65 -0.07,-0.58 -0.19,-1.14 -0.35,-1.67l-0.59 -2.01c-0.24,-0.82 -0.42,-1.57 -0.53,-2.25 -0.13,-0.82 -0.22,-1.58 -0.25,-2.27 -0.04,-0.69 -0.03,-1.43 0.04,-2.2 0.07,-0.77 0.25,-1.49 0.54,-2.16 0.29,-0.68 0.7,-1.26 1.22,-1.76 0.18,-0.18 0.35,-0.33 0.5,-0.45 0.15,-0.12 0.27,-0.21 0.35,-0.25 0.07,-0.05 0.23,-0.13 0.47,-0.25l0.55 -0.3 0.3 0.04 1.64 3.29 -0.26 0.4c-0.93,0.15 -1.72,0.54 -2.37,1.18 -0.35,0.34 -0.61,0.89 -0.78,1.65 -0.16,0.76 -0.18,1.68 -0.04,2.76 0.1,0.73 0.33,1.62 0.69,2.66 0.36,1.04 0.63,1.94 0.82,2.72 0.2,0.77 0.2,1.41 0.01,1.91l0.08 0.07c0.7,-0.48 1.38,-0.82 2.04,-1.02 0.66,-0.19 1.24,-0.28 1.74,-0.27 0.49,0.01 1.29,0.06 2.38,0.14l0.54 0.05c1.12,0.09 2.18,0.24 3.17,0.46 0.99,0.22 1.81,0.44 2.44,0.65 0.63,0.21 1.43,0.41 2.39,0.61 0.96,0.19 1.97,0.3 3.03,0.34l0.01 0.2c-0.56,0.4 -1.3,1.06 -2.23,1.96 -0.22,0.22 -0.38,0.38 -0.49,0.51 -0.12,0.13 -0.24,0.28 -0.37,0.44 -0.12,0.17 -0.26,0.33 -0.41,0.48 -1.03,-0.25 -1.93,-0.5 -2.73,-0.74l-2.68 -0.85 -1.91 -0.62 -1.07 -0.33 -0.97 -0.27c-0.44,-0.12 -0.76,-0.19 -0.99,-0.22l-0.93 -0.1c-0.39,-0.04 -0.7,-0.04 -0.95,0l-0.94 0.18c-0.38,0.07 -0.7,0.17 -0.99,0.33 -0.3,0.15 -0.62,0.34 -0.98,0.56 -0.35,0.22 -0.71,0.48 -1.07,0.78l3.02 3.1c2.25,2.31 4.14,4.08 5.68,5.28l0.03 0.14c-0.39,0.28 -0.89,0.71 -1.5,1.3 -0.6,0.59 -1.05,1.08 -1.33,1.45l-0.14 -0.02c-1.04,-1.43 -2.75,-3.38 -5.13,-5.83l-6.6 -6.79zm21.45 -26.89c-0.22,0.16 -0.36,0.31 -0.41,0.44 -0.07,0.14 -0.1,0.32 -0.11,0.57 0.27,0.75 0.98,1.97 2.11,3.68l5.98 8.95c0.7,1.04 1.25,1.95 1.64,2.74 0.42,0.82 0.71,1.54 0.86,2.17 0.15,0.63 0.23,1.17 0.23,1.66 -0.01,0.47 -0.12,0.91 -0.35,1.31 -0.22,0.41 -0.48,0.75 -0.76,1.04 -0.28,0.29 -0.65,0.59 -1.1,0.92 -0.32,0.23 -0.71,0.47 -1.16,0.72 -0.46,0.24 -0.76,0.38 -0.9,0.39l-0.15 -0.08c-0.03,-0.33 -0.23,-0.83 -0.58,-1.52 -0.36,-0.68 -0.57,-1.15 -0.65,-1.39l0.28 -0.25c0.94,0.42 1.79,0.35 2.54,-0.2 1.01,-0.72 0.57,-2.56 -1.32,-5.5l-6.15 -9.51c-1.31,-2.05 -2.66,-3.79 -4.02,-5.21l-0.04 -0.12c0.6,-0.35 1.25,-0.79 1.97,-1.31l8.18 -5.88c0.32,-0.23 0.61,-0.44 0.89,-0.64 0.27,-0.19 0.45,-0.35 0.54,-0.46l0.15 -0.14 0.1 0.06c0.82,1.58 2.22,3.75 4.22,6.53l5.54 7.69c1.83,2.56 3.46,4.58 4.87,6.06l0 0.14c-0.4,0.21 -0.96,0.59 -1.68,1.1 -0.32,0.24 -0.63,0.45 -0.9,0.65 -0.28,0.2 -0.46,0.34 -0.55,0.43l-0.14 0.17 -0.1 -0.07c-0.79,-1.54 -2.2,-3.71 -4.21,-6.52l-5.54 -7.7c-1.79,-2.48 -2.97,-3.95 -3.55,-4.41 -0.24,-0.07 -0.43,-0.11 -0.56,-0.1 -0.13,0.01 -0.32,0.1 -0.55,0.27l-4.62 3.32zm27.3 4.26c0.4,0.54 0.97,0.95 1.68,1.2 0.71,0.25 1.41,0.2 2.08,-0.14 0.67,-0.34 1.08,-0.84 1.22,-1.5 0.14,-0.65 0.18,-1.68 0.11,-3.08l-9.44 -7.65 -7.58 -5.91c0.43,-0.13 1.14,-0.44 2.13,-0.95 0.87,-0.44 1.49,-0.8 1.85,-1.07 0.59,0.63 2.04,1.98 4.36,4.05 2.32,2.08 5.13,4.48 8.41,7.2 -0.6,-8.03 -1.23,-13.63 -1.9,-16.78 0.32,-0.07 0.91,-0.33 1.77,-0.77 0.53,-0.27 0.92,-0.51 1.17,-0.72l0.97 20.66c0.06,1.24 0.06,2.32 0.01,3.22 -0.05,0.91 -0.19,1.79 -0.4,2.67 -0.21,0.87 -0.56,1.61 -1.04,2.23 -0.48,0.62 -1.09,1.12 -1.84,1.5 -0.77,0.39 -1.6,0.64 -2.5,0.74 -0.9,0.11 -1.63,0.04 -2.17,-0.19l-0.08 -0.15c0.27,-0.75 0.49,-2.23 0.67,-4.42l0.52 -0.14zm19.98 -18.66l3.44 8.76c0.25,0.65 0.6,1.06 1.05,1.23 0.46,0.17 1.15,0.06 2.09,-0.3 4.14,-1.62 5.49,-4.25 4.07,-7.88 -0.2,-0.5 -0.42,-0.95 -0.65,-1.34 -0.24,-0.39 -0.58,-0.78 -1.02,-1.18 -0.43,-0.39 -0.92,-0.68 -1.47,-0.86 -0.53,-0.18 -1.22,-0.24 -2.05,-0.18 -0.84,0.06 -1.75,0.29 -2.75,0.68l-2.71 1.07zm-4.76 -3c-1.18,-3 -2.24,-5.37 -3.2,-7.07l0.05 -0.14c0.48,-0.11 1.12,-0.32 1.94,-0.64l9.38 -3.68c0.85,-0.34 1.55,-0.65 2.11,-0.96l0.13 0.08c0.37,1.18 0.72,2.07 1.04,2.66l-0.02 0.19c-3.56,0.73 -6.94,1.72 -10.15,2.98 0.06,0.63 0.67,2.41 1.81,5.34l0.99 2.51 3.17 -1.25c1.08,-0.42 2.08,-0.74 3.01,-0.94 0.93,-0.21 1.74,-0.33 2.44,-0.34 0.69,-0.01 1.33,0.06 1.91,0.23 0.59,0.17 1.08,0.38 1.48,0.63 0.41,0.26 0.78,0.59 1.12,0.99 0.34,0.41 0.62,0.81 0.84,1.21 0.22,0.4 0.43,0.85 0.63,1.36 0.34,0.88 0.55,1.72 0.62,2.52 0.07,0.79 0.03,1.5 -0.12,2.12 -0.15,0.62 -0.42,1.21 -0.8,1.77 -0.38,0.57 -0.8,1.06 -1.25,1.48 -0.45,0.41 -1,0.81 -1.64,1.21 -0.63,0.39 -1.24,0.7 -1.82,0.93 -0.57,0.22 -1.21,0.47 -1.91,0.75 -0.47,0.18 -1.13,0.44 -2.01,0.79 -0.89,0.34 -1.49,0.58 -1.82,0.71 -0.36,0.14 -0.71,0.28 -1.04,0.41 -0.33,0.13 -0.56,0.22 -0.69,0.29l-0.2 0.12 -0.08 -0.09c-0.42,-1.81 -1.25,-4.26 -2.46,-7.36l-3.46 -8.81zm54.07 -5.07c0.39,2.26 0.77,3.85 1.14,4.81 0.37,0.95 0.87,1.4 1.49,1.34 0.77,-0.05 1.2,0.15 1.28,0.61l0.52 5.79 -0.05 0.12 -1.24 0.21 -0.09 -0.1 -0.39 -1.13c-0.1,-0.3 -0.24,-0.65 -0.41,-1.04 -0.18,-0.39 -0.35,-0.7 -0.52,-0.93 -0.16,-0.23 -0.37,-0.48 -0.61,-0.73 -0.24,-0.25 -0.5,-0.44 -0.77,-0.55 -0.26,-0.11 -0.58,-0.19 -0.95,-0.23 -0.37,-0.05 -0.76,-0.04 -1.18,0.04l-14.58 2.49c-0.38,0.06 -0.74,0.12 -1.08,0.18 -0.33,0.06 -0.57,0.11 -0.7,0.16l-0.2 0.09 -0.05 -0.11c-0.05,-1.86 -0.36,-4.43 -0.92,-7.71l-1.6 -9.34c-0.51,-3.01 -1.09,-5.53 -1.73,-7.58l0.06 -0.12c0.46,-0.02 1.14,-0.11 2,-0.25 0.4,-0.07 0.77,-0.14 1.1,-0.19 0.32,-0.06 0.55,-0.12 0.67,-0.18l0.2 -0.06 0.05 0.11c0.04,1.73 0.35,4.3 0.93,7.7l1.6 9.34c0.49,2.89 0.9,4.67 1.22,5.33 0.19,0.37 0.58,0.5 1.18,0.39l9.99 -1.7c0.6,-0.11 0.93,-0.36 0.98,-0.77 0.08,-0.73 -0.12,-2.54 -0.62,-5.43l-1.6 -9.34c-0.58,-3.4 -1.14,-5.92 -1.68,-7.58l0.02 -0.11c0.44,-0.01 1.1,-0.1 2,-0.26 0.38,-0.06 0.74,-0.12 1.08,-0.18 0.33,-0.06 0.57,-0.12 0.69,-0.18l0.2 -0.06 0.1 0.1c0.07,2.14 0.36,4.71 0.88,7.72l1.59 9.33zm12.34 -1.07c0.08,2.94 0.23,4.78 0.46,5.51 1.54,-0.04 3.22,-0.08 5.03,-0.13 1.82,-0.04 3.25,-0.14 4.31,-0.27l1.56 -0.22 0.08 0.16c-0.04,0.4 -0.05,0.83 -0.04,1.28 0,0.07 0.04,0.47 0.1,1.2l-0.07 0.11c-0.62,-0.04 -1.39,-0.05 -2.33,-0.02l-10.56 0.26c-0.41,0.01 -0.78,0.02 -1.11,0.03 -0.33,0.01 -0.57,0.02 -0.69,0.04l-0.21 0.07 -0.04 -0.11c0.21,-1.76 0.27,-4.36 0.18,-7.77l-0.23 -9.47c-0.09,-3.33 -0.28,-5.92 -0.58,-7.75l0.08 -0.12c0.43,0.07 1.08,0.09 1.97,0.07l10.19 -0.26c0.93,-0.02 1.71,-0.08 2.32,-0.17l0.08 0.11c-0.04,0.74 -0.05,1.23 -0.04,1.48 0,0.27 0.04,0.6 0.1,1.01l-0.07 0.15c-3.59,-0.22 -7.1,-0.29 -10.54,-0.2 -0.2,0.76 -0.26,2.62 -0.18,5.59l0.07 3.01c2.71,-0.07 5.59,-0.27 8.63,-0.6l0.12 0.12c-0.07,0.34 -0.09,0.75 -0.08,1.24 0.01,0.48 0.05,0.89 0.14,1.23l-0.11 0.12c-2.54,-0.2 -5.42,-0.25 -8.65,-0.17l0.11 4.47zm37.38 -15.92c0.39,0.03 0.75,0.06 1.09,0.08 0.34,0.03 0.59,0.03 0.72,0l0.21 -0.01 0.03 0.11c-0.4,1.82 -0.73,4.39 -0.99,7.71l-0.73 9.45c-0.23,3.05 -0.29,5.64 -0.16,7.78l-0.09 0.1c-0.46,-0.09 -1.13,-0.17 -2.01,-0.24 -0.4,-0.03 -0.77,-0.06 -1.11,-0.08 -0.32,-0.03 -0.56,-0.04 -0.69,-0.03l-0.21 0.04 -0.03 -0.11c0.39,-1.69 0.71,-4.26 0.98,-7.71l0.73 -9.45c0.23,-2.97 0.27,-4.82 0.12,-5.55 -0.13,-0.2 -0.26,-0.34 -0.38,-0.42 -0.12,-0.09 -0.32,-0.14 -0.59,-0.16l-10.26 -0.8c-0.28,-0.02 -0.48,0.01 -0.62,0.07 -0.12,0.06 -0.28,0.19 -0.44,0.36 -0.25,0.7 -0.5,2.53 -0.73,5.51l-0.73 9.45c-0.26,3.44 -0.33,6.03 -0.21,7.76l-0.05 0.11c-0.43,-0.09 -1.09,-0.17 -2,-0.24 -0.38,-0.03 -0.75,-0.06 -1.09,-0.08 -0.34,-0.03 -0.58,-0.04 -0.72,-0.03l-0.21 0.04 -0.07 -0.12c0.46,-2.09 0.8,-4.66 1.03,-7.71l0.73 -9.45c0.26,-3.32 0.33,-5.91 0.21,-7.77l0.04 -0.1c0.46,0.09 1.14,0.17 2.01,0.24l16.22 1.25zm28.53 14.38c0.85,-3.12 1.41,-5.65 1.67,-7.59l0.11 -0.09c0.43,0.2 1.06,0.41 1.88,0.64 0.83,0.23 1.48,0.37 1.96,0.42l0.01 0.12c-0.7,1.59 -1.51,4.05 -2.43,7.38l-2.52 9.13c-0.88,3.2 -1.44,5.74 -1.69,7.57l-0.11 0.1c-0.44,-0.21 -1.05,-0.42 -1.86,-0.64 -0.85,-0.23 -1.51,-0.38 -1.98,-0.42l-0.01 -0.13c0.75,-1.7 1.56,-4.16 2.45,-7.37l1.24 -4.5 -12.92 -3.57 -1.24 4.5c-0.86,3.12 -1.43,5.65 -1.69,7.59l-0.1 0.09c-0.44,-0.2 -1.07,-0.41 -1.88,-0.64 -0.84,-0.23 -1.49,-0.37 -1.97,-0.42l-0.01 -0.12c0.71,-1.63 1.52,-4.08 2.43,-7.37l2.52 -9.14c0.89,-3.21 1.45,-5.73 1.7,-7.57l0.1 -0.1c0.43,0.2 1.05,0.41 1.87,0.64 0.84,0.23 1.5,0.37 1.98,0.42l0 0.13c-0.73,1.66 -1.54,4.12 -2.44,7.37l-0.82 2.98 12.93 3.56 0.82 -2.97zm21.32 15.02c0.17,-3.42 0.27,-6.86 0.28,-10.33l-0.07 -0.03 -7.6 7.1c0.21,0.09 0.78,0.34 1.71,0.75 0.94,0.42 1.6,0.71 1.99,0.88 1.31,0.58 2.54,1.12 3.69,1.63zm-8.8 -1.94c-2.98,2.9 -5.17,5.21 -6.57,6.93 -0.26,-0.2 -0.77,-0.47 -1.56,-0.82 -0.53,-0.23 -0.95,-0.38 -1.27,-0.43l20.78 -18.82 0.99 0.44 -0.27 9.88 -0.32 11.18c-0.08,3.15 -0.09,5.36 -0.04,6.64 -0.37,-0.25 -1.06,-0.59 -2.07,-1.04 -0.78,-0.34 -1.39,-0.57 -1.82,-0.67 0.34,-2.18 0.62,-5.32 0.87,-9.44 -1.32,-0.58 -2.71,-1.19 -4.15,-1.83 -1.69,-0.75 -3.22,-1.42 -4.57,-2.02zm33.92 0.15c-0.46,-0.26 -0.89,-0.46 -1.29,-0.61 -0.41,-0.16 -0.87,-0.26 -1.38,-0.28 -0.51,-0.03 -0.99,0.03 -1.44,0.2 -0.45,0.17 -0.91,0.49 -1.4,0.96 -0.5,0.47 -0.96,1.09 -1.39,1.86 -0.46,0.82 -0.77,1.59 -0.93,2.29 -0.15,0.7 -0.18,1.32 -0.08,1.85 0.1,0.53 0.33,1.05 0.71,1.53 0.37,0.49 0.79,0.92 1.28,1.29 0.47,0.37 1.06,0.75 1.77,1.14l1.61 0.91 4.52 -8.08c0.3,-0.53 0.33,-1.01 0.08,-1.45 -0.24,-0.44 -0.92,-0.98 -2.06,-1.61zm-8.54 9.12c-0.49,-0.46 -0.92,-0.96 -1.3,-1.51 -0.71,-1.06 -1.14,-2.22 -1.26,-3.48 -0.12,-1.26 0.18,-2.53 0.9,-3.82 0.94,-1.67 2.32,-2.74 4.14,-3.19 1.11,-0.27 2.18,-0.24 3.22,0.08 1.03,0.32 2.22,0.85 3.56,1.6 0.26,0.15 0.94,0.53 2.04,1.15 1.11,0.61 1.83,1.02 2.18,1.21 0.35,0.2 0.66,0.37 0.95,0.54 0.29,0.16 0.49,0.28 0.6,0.35l0.17 0.11 0.01 0.14c-1.18,1.56 -2.55,3.76 -4.13,6.57l-4.62 8.27c-1.62,2.91 -2.77,5.23 -3.44,6.97l-0.08 0.08c-0.36,-0.27 -0.93,-0.62 -1.73,-1.07 -0.34,-0.18 -0.65,-0.36 -0.94,-0.52 -0.29,-0.16 -0.49,-0.27 -0.62,-0.32l-0.2 -0.04 0 -0.14c1.11,-1.48 2.49,-3.69 4.11,-6.6l1.63 -2.91c-0.82,-0.46 -1.57,-0.87 -2.23,-1.24 -1.28,0.46 -2.94,1.18 -4.98,2.16 -3.66,1.77 -5.98,3.1 -6.98,4 -0.39,-0.3 -1.14,-0.76 -2.24,-1.37 -0.73,-0.41 -1.33,-0.71 -1.82,-0.89l-0.01 -0.14c1.05,-0.36 3.28,-1.36 6.67,-2.98 3.39,-1.63 5.53,-2.62 6.4,-3.01zm33.43 10.72l-5.95 6.94c0.22,0.53 0.91,1.29 2.07,2.28 1.5,1.29 2.92,1.92 4.25,1.88 1.33,-0.04 2.69,-0.88 4.08,-2.5 0.59,-0.69 1.01,-1.35 1.26,-1.98 0.27,-0.65 0.39,-1.22 0.38,-1.72 -0.01,-0.51 -0.13,-1.01 -0.36,-1.51 -0.24,-0.5 -0.51,-0.93 -0.83,-1.3 -0.32,-0.36 -0.7,-0.74 -1.15,-1.12 -1.01,-0.86 -1.79,-1.35 -2.35,-1.48 -0.55,-0.11 -1.02,0.06 -1.4,0.51zm-5.56 1.37c2.16,-2.53 3.75,-4.58 4.76,-6.15l0.13 -0.03c0.36,0.29 0.86,0.72 1.5,1.27 0.3,0.25 1,0.85 2.1,1.8 1.1,0.94 1.78,1.52 2.03,1.73 1.04,0.9 1.88,1.8 2.51,2.71 0.63,0.93 1.04,1.77 1.24,2.54 0.19,0.77 0.25,1.52 0.18,2.26 -0.08,0.74 -0.25,1.39 -0.51,1.94 -0.26,0.54 -0.6,1.05 -0.99,1.52 -0.45,0.51 -0.97,0.97 -1.57,1.36 -0.59,0.38 -1.3,0.68 -2.11,0.89 -0.81,0.21 -1.65,0.29 -2.53,0.22 -0.88,-0.06 -1.84,-0.32 -2.89,-0.79 -1.05,-0.48 -2.08,-1.15 -3.11,-2.03 -1.01,-0.86 -1.74,-1.67 -2.21,-2.42l-2.16 2.53c-2.1,2.45 -3.69,4.5 -4.75,6.15l-0.13 0.04c-0.32,-0.37 -0.8,-0.83 -1.44,-1.38 -0.64,-0.55 -1.17,-0.95 -1.57,-1.19l0.02 -0.14c1.33,-1.17 3.11,-3.05 5.33,-5.64l6.17 -7.19z"/>
    <path class="fil2" d="M347.21 86.25c-2.21,1.95 -3.53,3.24 -3.93,3.89 1.01,1.16 2.12,2.42 3.32,3.78 1.2,1.36 2.19,2.4 2.97,3.12l1.17 1.07 -0.06 0.16c-0.34,0.22 -0.68,0.49 -1.02,0.79 -0.05,0.04 -0.33,0.32 -0.85,0.85l-0.13 0.01c-0.37,-0.5 -0.86,-1.1 -1.48,-1.8l-6.98 -7.93c-0.27,-0.31 -0.51,-0.58 -0.73,-0.84 -0.22,-0.25 -0.38,-0.41 -0.48,-0.49l-0.18 -0.13 0.06 -0.1c1.48,-0.97 3.51,-2.58 6.07,-4.84l7.12 -6.26c2.5,-2.2 4.35,-4.01 5.57,-5.41l0.14 -0.02c0.23,0.38 0.63,0.89 1.21,1.55l6.74 7.66c0.61,0.7 1.16,1.25 1.62,1.66l-0.04 0.14c-0.58,0.45 -0.97,0.75 -1.16,0.92 -0.2,0.17 -0.43,0.41 -0.7,0.72l-0.17 0.04c-2.13,-2.89 -4.33,-5.63 -6.6,-8.21 -0.72,0.33 -2.18,1.49 -4.41,3.45l-2.26 1.99c1.79,2.03 3.79,4.11 6,6.24l-0.02 0.15c-0.31,0.17 -0.64,0.42 -1.01,0.75 -0.35,0.31 -0.64,0.6 -0.85,0.89l-0.16 -0.01c-1.48,-2.07 -3.28,-4.32 -5.41,-6.74l-3.36 2.95zm20.95 21.83c1.88,-2.85 3.71,-5.77 5.48,-8.75l-0.04 -0.06 -10.15 2.26c0.13,0.18 0.49,0.69 1.09,1.52 0.6,0.83 1.02,1.42 1.27,1.76 0.83,1.16 1.61,2.25 2.35,3.27zm-6.6 -6.13c-4.04,0.98 -7.1,1.86 -9.18,2.63 -0.12,-0.3 -0.42,-0.8 -0.93,-1.5 -0.33,-0.47 -0.63,-0.81 -0.87,-1.02l27.45 -5.65 0.63 0.87 -5.24 8.38 -5.96 9.47c-1.67,2.67 -2.8,4.57 -3.41,5.7 -0.19,-0.4 -0.61,-1.05 -1.25,-1.94 -0.5,-0.69 -0.91,-1.2 -1.23,-1.51 1.4,-1.7 3.24,-4.27 5.55,-7.69 -0.85,-1.17 -1.73,-2.4 -2.65,-3.68 -1.08,-1.51 -2.05,-2.86 -2.91,-4.06zm20.07 15.28c2.97,-1.5 5.22,-2.77 6.75,-3.83l0.13 0.02c0.15,0.45 0.41,1.06 0.79,1.81 0.38,0.76 0.71,1.33 0.99,1.73l-0.06 0.11c-1.73,0.57 -4.1,1.62 -7.1,3.13l-3.03 1.53c0.3,0.6 0.67,1.07 1.1,1.4 0.43,0.33 0.94,0.54 1.52,0.64 0.58,0.1 1.15,0.16 1.7,0.16l2.1 0.04c0.86,0.03 1.63,0.08 2.31,0.18 0.82,0.12 1.57,0.27 2.24,0.44 0.67,0.17 1.37,0.4 2.08,0.7 0.71,0.29 1.35,0.69 1.9,1.17 0.56,0.48 0.99,1.05 1.32,1.69 0.11,0.22 0.2,0.43 0.27,0.61 0.07,0.18 0.11,0.32 0.14,0.41 0.02,0.09 0.05,0.26 0.09,0.52l0.12 0.62 -0.13 0.27 -3.63 0.58 -0.3 -0.37c0.13,-0.93 0,-1.8 -0.41,-2.62 -0.22,-0.43 -0.67,-0.85 -1.35,-1.23 -0.67,-0.39 -1.54,-0.68 -2.62,-0.87 -0.72,-0.13 -1.64,-0.18 -2.74,-0.15 -1.09,0.03 -2.04,0.03 -2.84,-0.03 -0.79,-0.05 -1.4,-0.24 -1.82,-0.56l-0.1 0.04c0.25,0.82 0.37,1.57 0.36,2.26 -0.01,0.68 -0.1,1.26 -0.26,1.74 -0.16,0.47 -0.44,1.21 -0.85,2.23l-0.21 0.5c-0.42,1.04 -0.88,2.01 -1.39,2.88 -0.51,0.88 -0.97,1.6 -1.36,2.14 -0.38,0.54 -0.82,1.24 -1.29,2.1 -0.47,0.85 -0.88,1.79 -1.24,2.78l-0.19 -0.05c-0.22,-0.65 -0.62,-1.56 -1.21,-2.72 -0.13,-0.27 -0.24,-0.48 -0.33,-0.62 -0.09,-0.15 -0.19,-0.31 -0.31,-0.48 -0.13,-0.17 -0.24,-0.35 -0.34,-0.54 0.56,-0.9 1.06,-1.69 1.53,-2.38l1.62 -2.3 1.16 -1.64 0.64 -0.91 0.55 -0.85c0.24,-0.38 0.41,-0.67 0.51,-0.87l0.37 -0.86c0.15,-0.36 0.25,-0.67 0.28,-0.91l0.12 -0.95c0.05,-0.38 0.05,-0.72 -0.02,-1.05 -0.05,-0.32 -0.13,-0.69 -0.24,-1.1 -0.1,-0.4 -0.25,-0.82 -0.42,-1.25l-3.86 1.94c-2.89,1.45 -5.14,2.73 -6.75,3.84l-0.14 -0.01c-0.15,-0.47 -0.41,-1.07 -0.79,-1.83 -0.38,-0.75 -0.71,-1.32 -0.99,-1.71l0.07 -0.12c1.68,-0.56 4.04,-1.61 7.1,-3.14l8.46 -4.26zm8.69 45.92c-2.17,0.7 -3.7,1.31 -4.59,1.81 -0.89,0.51 -1.26,1.06 -1.12,1.67 0.16,0.75 0.02,1.21 -0.42,1.35l-5.65 1.35 -0.13 -0.04 -0.39 -1.19 0.09 -0.11 1.07 -0.54c0.28,-0.15 0.6,-0.33 0.96,-0.56 0.37,-0.23 0.65,-0.44 0.86,-0.65 0.2,-0.19 0.41,-0.43 0.62,-0.7 0.22,-0.28 0.37,-0.56 0.44,-0.84 0.07,-0.28 0.11,-0.61 0.1,-0.97 -0.01,-0.38 -0.08,-0.76 -0.21,-1.17l-4.56 -14.07c-0.12,-0.37 -0.23,-0.72 -0.34,-1.05 -0.1,-0.32 -0.19,-0.54 -0.25,-0.67l-0.12 -0.18 0.1 -0.07c1.83,-0.31 4.33,-0.99 7.5,-2.01l9.01 -2.92c2.91,-0.94 5.32,-1.87 7.25,-2.8l0.13 0.04c0.09,0.46 0.27,1.11 0.54,1.94 0.13,0.39 0.24,0.74 0.35,1.06 0.1,0.31 0.19,0.53 0.26,0.64l0.09 0.19 -0.09 0.07c-1.71,0.29 -4.21,0.96 -7.49,2.03l-9.01 2.91c-2.8,0.91 -4.5,1.57 -5.11,1.97 -0.33,0.24 -0.4,0.65 -0.22,1.23l3.13 9.64c0.18,0.58 0.48,0.87 0.89,0.86 0.73,-0.02 2.5,-0.49 5.29,-1.39l9.01 -2.92c3.29,-1.06 5.7,-1.98 7.26,-2.75l0.12 0.01c0.07,0.43 0.25,1.07 0.54,1.93 0.11,0.37 0.23,0.72 0.33,1.04 0.11,0.32 0.2,0.55 0.28,0.67l0.09 0.19 -0.08 0.11c-2.11,0.37 -4.61,1.03 -7.52,1.97l-9.01 2.92zm11.69 7.18c3.28,-0.55 5.8,-1.11 7.58,-1.66l0.12 0.05c0.01,0.47 0.08,1.13 0.22,1.96 0.14,0.84 0.29,1.48 0.44,1.94l-0.1 0.09c-1.82,0.05 -4.4,0.35 -7.73,0.91l-9.35 1.58c-2.04,0.35 -3.64,0.66 -4.81,0.93l23.59 9.19c0.27,-0.05 0.4,-0.08 0.4,-0.08 0,-0.01 0,-0.01 0.02,-0.01l0.13 0.05c0,0.48 0.07,1.14 0.21,1.98 0.14,0.82 0.29,1.46 0.44,1.92l-0.1 0.1c-1.73,0.03 -4.3,0.34 -7.71,0.91l-9.34 1.58c-3.28,0.56 -5.81,1.12 -7.58,1.67l-0.13 -0.06c0,-0.48 -0.07,-1.14 -0.21,-1.96 -0.14,-0.84 -0.29,-1.49 -0.45,-1.93l0.1 -0.1c1.84,-0.04 4.37,-0.33 7.59,-0.88l9.2 -1.55c1.98,-0.33 3.54,-0.64 4.69,-0.91l-23.59 -9.17 -0.13 -0.05c0,-0.49 -0.07,-1.15 -0.21,-1.98 -0.14,-0.83 -0.29,-1.48 -0.45,-1.92l0.1 -0.1c1.78,-0.04 4.34,-0.35 7.71,-0.92l9.35 -1.58zm10.84 37.71c-0.01,-0.53 -0.05,-1 -0.13,-1.43 -0.07,-0.43 -0.22,-0.87 -0.46,-1.32 -0.22,-0.46 -0.52,-0.84 -0.9,-1.14 -0.37,-0.3 -0.88,-0.54 -1.54,-0.73 -0.65,-0.19 -1.43,-0.27 -2.3,-0.25 -0.95,0.02 -1.77,0.14 -2.45,0.36 -0.68,0.23 -1.23,0.52 -1.64,0.87 -0.4,0.36 -0.73,0.82 -0.96,1.39 -0.23,0.57 -0.39,1.15 -0.46,1.75 -0.08,0.6 -0.11,1.3 -0.09,2.11l0.04 1.85 9.26 -0.2c0.6,-0.02 1.03,-0.23 1.29,-0.67 0.25,-0.42 0.37,-1.29 0.34,-2.59zm-12.19 -2.73c0.14,-0.66 0.36,-1.29 0.65,-1.89 0.54,-1.16 1.33,-2.11 2.35,-2.85 1.03,-0.74 2.28,-1.13 3.75,-1.16 1.91,-0.04 3.53,0.61 4.85,1.95 0.79,0.82 1.31,1.75 1.56,2.81 0.25,1.05 0.39,2.35 0.42,3.88 0.01,0.3 0.03,1.09 0.06,2.34 0.02,1.27 0.04,2.1 0.05,2.5 0.01,0.4 0.02,0.76 0.03,1.09 0,0.33 0,0.56 -0.01,0.69l-0.01 0.21 -0.11 0.07c-1.94,-0.22 -4.53,-0.29 -7.76,-0.22l-9.47 0.21c-3.33,0.08 -5.91,0.26 -7.75,0.57l-0.11 -0.03c0.05,-0.45 0.06,-1.12 0.04,-2.03 -0.01,-0.39 -0.01,-0.75 -0.02,-1.08 -0.01,-0.33 -0.02,-0.56 -0.04,-0.69l-0.07 -0.2 0.12 -0.07c1.84,0.21 4.44,0.28 7.77,0.2l3.34 -0.07c-0.02,-0.94 -0.04,-1.8 -0.06,-2.55 -1.05,-0.87 -2.51,-1.94 -4.39,-3.2 -3.38,-2.25 -5.71,-3.58 -6.99,-3.99 0.07,-0.49 0.08,-1.36 0.05,-2.63 -0.02,-0.83 -0.07,-1.5 -0.15,-2.01l0.1 -0.08c0.85,0.72 2.84,2.14 5.96,4.24 3.12,2.1 5.06,3.43 5.84,3.99z"/>
   </g>
  </g>
 </g>
</svg>
